<?xml version="1.0" encoding="UTF-8" standalone="no"?>
<svg
   version="1.0"
   width="1024.000000pt"
   height="1024.000000pt"
   viewBox="0 0 1024.000000 1024.000000"
   preserveAspectRatio="xMidYMid meet"
   id="svg2"
   sodipodi:docname="bull2.svg"
   inkscape:version="1.4.2 (2aeb623e1d, 2025-05-12)"
   xmlns:inkscape="http://www.inkscape.org/namespaces/inkscape"
   xmlns:sodipodi="http://sodipodi.sourceforge.net/DTD/sodipodi-0.dtd"
   xmlns="http://www.w3.org/2000/svg"
   xmlns:svg="http://www.w3.org/2000/svg">
  <defs
     id="defs2" />
  <sodipodi:namedview
     id="namedview2"
     pagecolor="#ffffff"
     bordercolor="#666666"
     borderopacity="1.0"
     inkscape:showpageshadow="2"
     inkscape:pageopacity="0.0"
     inkscape:pagecheckerboard="0"
     inkscape:deskcolor="#d1d1d1"
     inkscape:document-units="pt"
     inkscape:zoom="0.84814453"
     inkscape:cx="682.66667"
     inkscape:cy="682.66667"
     inkscape:window-width="5120"
     inkscape:window-height="1363"
     inkscape:window-x="0"
     inkscape:window-y="0"
     inkscape:window-maximized="1"
     inkscape:current-layer="svg2" />
  <g
     transform="matrix(-0.19640346,0,0,-0.19640346,1522.8726,1523.723)"
     fill="#00a3e4"
     stroke="none"
     id="g2">
    <path
       d="m 5050,7753 c -69,-8 -236,-41 -295,-60 l -60,-18 60,-2 c 259,-10 452,-41 615,-98 226,-79 327,-140 465,-279 72,-73 99,-109 135,-180 45,-88 45,-89 45,-195 0,-94 -3,-112 -27,-164 -35,-74 -123,-166 -196,-205 -69,-37 -141,-56 -287,-76 -60,-8 -360,-51 -665,-95 -650,-94 -745,-104 -857,-91 -179,20 -286,71 -409,194 -67,68 -86,94 -114,161 -29,71 -34,93 -38,192 -4,102 -2,121 22,199 15,47 25,88 23,90 -2,3 -31,-16 -64,-40 -140,-103 -223,-279 -223,-476 0,-151 45,-270 155,-406 180,-224 477,-338 830,-319 72,3 152,11 179,16 27,5 51,8 53,6 5,-5 -329,-496 -578,-851 -73,-104 -93,-153 -78,-192 14,-39 206,-301 254,-347 52,-51 100,-75 182,-88 116,-20 189,4 374,122 117,75 196,100 334,106 268,12 486,-98 635,-322 93,-140 125,-262 117,-452 -6,-154 -23,-224 -88,-361 -79,-168 -170,-287 -323,-423 -148,-132 -339,-245 -517,-307 -83,-29 -294,-84 -373,-97 -21,-3 -36,-8 -34,-11 11,-11 214,-66 308,-84 397,-75 748,-74 1100,2 724,155 1388,643 1732,1273 153,281 263,630 299,955 16,140 6,456 -20,628 -22,148 -74,354 -120,478 -28,78 -132,296 -153,322 -8,9 -16,-5 -32,-50 -58,-164 -186,-347 -327,-466 -307,-258 -766,-272 -1025,-30 -64,60 -131,145 -121,154 2,2 16,0 31,-6 91,-34 174,-45 346,-44 208,0 278,16 435,93 244,122 404,357 440,650 7,53 7,54 -16,48 -13,-3 -75,-11 -137,-18 l -113,-12 -19,-45 c -67,-150 -214,-281 -378,-337 -132,-45 -131,-45 -59,40 151,176 228,418 200,627 -26,188 -101,334 -253,489 -263,269 -675,412 -1168,407 -92,0 -183,-3 -202,-5 z m 69,-2020 c -22,-117 -114,-235 -212,-272 -30,-11 -93,-23 -141,-27 l -86,-7 14,40 c 40,112 115,207 200,250 40,20 178,59 222,62 8,1 9,-13 3,-46 z"
       id="path1" />
    <path
       d="m 2852,6231 c -77,-106 -166,-308 -221,-500 -62,-217 -85,-399 -86,-681 0,-325 23,-474 117,-758 91,-276 246,-561 416,-765 345,-416 704,-570 1171,-501 183,27 450,131 571,224 25,19 25,19 -107,19 -162,0 -268,13 -431,52 -363,86 -735,315 -983,605 -136,159 -273,364 -336,504 -237,521 -272,1006 -117,1643 25,104 44,191 41,194 -3,2 -19,-13 -35,-36 z"
       id="path2" />
  </g>
</svg>
